<?xml version="1.0" standalone="no"?><!DOCTYPE svg PUBLIC "-//W3C//DTD SVG 1.1//EN" "http://www.w3.org/Graphics/SVG/1.1/DTD/svg11.dtd"><svg t="1747297818298" class="icon" viewBox="0 0 1024 1024" version="1.1" xmlns="http://www.w3.org/2000/svg" p-id="23770" width="192" height="192" xmlns:xlink="http://www.w3.org/1999/xlink"><path d="M327.68 265.813333L130.56 416A320.96 320.96 0 0 1 138.666667 133.12a256 256 0 0 1 189.013333 132.693333z" fill="#C1814C" p-id="23771"></path><path d="M299.733333 287.146667L156.48 396.48a232.96 232.96 0 0 1 5.866667-205.76 186.133333 186.133333 0 0 1 137.386666 96.426667z" fill="#E09F73" p-id="23772"></path><path d="M696.32 265.813333L893.333333 416A320 320 0 0 0 885.333333 133.12a256 256 0 0 0-189.013333 132.693333z" fill="#C1814C" p-id="23773"></path><path d="M724.266667 287.146667l143.253333 109.333333a232.533333 232.533333 0 0 0-5.973333-205.76 186.133333 186.133333 0 0 0-137.28 96.426667z" fill="#E09F73" p-id="23774"></path><path d="M918.506667 508.906667a592.64 592.64 0 0 1-63.146667 267.2 680.96 680.96 0 0 1-686.72 0 597.333333 597.333333 0 0 1-34.88-448.853334 128 128 0 0 1 62.186667-73.706666A667.306667 667.306667 0 0 1 512 176.106667a668.48 668.48 0 0 1 316.16 77.44 128 128 0 0 1 62.186667 73.706666 594.453333 594.453333 0 0 1 28.16 181.653334z" fill="#FFED98" p-id="23775"></path><path d="M901.44 367.573333a224.853333 224.853333 0 0 0-239.786667-42.666666c-13.973333-68.906667-40.64-115.413333-71.04-115.413334-37.653333 0-69.226667 70.506667-78.613333 166.4-9.386667-96-41.066667-166.4-78.72-166.4-30.4 0-57.066667 46.506667-71.04 115.306667a224.853333 224.853333 0 0 0-239.893333 42.666667c3.2-13.013333 6.826667-25.92 10.666666-38.506667a130.666667 130.666667 0 0 1 62.826667-75.626667A667.306667 667.306667 0 0 1 512 176.106667a669.546667 669.546667 0 0 1 316.053333 77.333333 130.56 130.56 0 0 1 62.933334 76.053333q5.866667 18.773333 10.453333 38.08z" fill="#C1814C" p-id="23776"></path><path d="M362.24 324.8m-20.053333 0a20.053333 20.053333 0 1 0 40.106666 0 20.053333 20.053333 0 1 0-40.106666 0Z" fill="#C1814C" p-id="23777"></path><path d="M661.653333 324.8m-20.053333 0a20.053333 20.053333 0 1 0 40.106667 0 20.053333 20.053333 0 1 0-40.106667 0Z" fill="#C1814C" p-id="23778"></path><path d="M855.36 776.106667a690.88 690.88 0 0 1-290.773333 90.88c-7.253333 0-27.84 2.026667-52.693334 2.026666a664.533333 664.533333 0 0 1-343.253333-92.906666 1039.466667 1039.466667 0 0 1 686.72 0z" fill="#FFCF66" p-id="23779"></path><path d="M491.413333 581.653333a12.48 12.48 0 0 1 0-18.56 51.52 51.52 0 0 1 26.986667-11.84 50.986667 50.986667 0 0 1 36.693333 10.666667 12.373333 12.373333 0 0 1 0.64 19.093333l-24.853333 22.186667a12.586667 12.586667 0 0 1-16.853333 0z" p-id="23780"></path><path d="M314.88 504.106667a119.146667 119.146667 0 0 1-114.133333-85.973334 15.893333 15.893333 0 0 1 2.666666-14.08 16.106667 16.106667 0 0 1 12.8-6.4h173.866667a22.613333 22.613333 0 0 1 16.32 6.72l9.386667 9.28a22.826667 22.826667 0 0 1 4.48 26.346667 118.186667 118.186667 0 0 1-105.386667 64.106667z" fill="#FFFFFF" p-id="23781"></path><path d="M390.08 409.706667a10.666667 10.666667 0 0 1 7.786667 3.306666l9.28 9.28a10.666667 10.666667 0 0 1 2.346666 12.16 106.666667 106.666667 0 0 1-197.013333-19.626666 4.053333 4.053333 0 0 1 0.64-3.52 3.626667 3.626667 0 0 1 3.093333-1.6h173.866667m0-24.213334h-173.866667a28.266667 28.266667 0 0 0-27.093333 36.053334 130.88 130.88 0 0 0 241.92 24.106666 34.88 34.88 0 0 0-6.72-40.533333l-9.28-9.28a35.306667 35.306667 0 0 0-24.96-10.666667z" fill="#1C1C1C" p-id="23782"></path><path d="M391.04 385.493333a84.16 84.16 0 1 1-168.32 0z" p-id="23783"></path><path d="M708.586667 504.106667a118.293333 118.293333 0 0 1-105.493334-64 22.933333 22.933333 0 0 1 4.906667-26.453334l9.28-9.28a22.826667 22.826667 0 0 1 16.32-6.72h173.866667a16 16 0 0 1 15.466666 20.48 118.933333 118.933333 0 0 1-114.346666 85.973334z" fill="#FFFFFF" p-id="23784"></path><path d="M807.146667 409.706667a3.946667 3.946667 0 0 1 3.2 1.6 4.053333 4.053333 0 0 1 0.64 3.52 106.666667 106.666667 0 0 1-197.12 19.626666 10.666667 10.666667 0 0 1 2.346666-12.16l9.386667-9.28a10.666667 10.666667 0 0 1 7.68-3.306666h173.866667m0-24.213334h-173.866667a34.986667 34.986667 0 0 0-24.853333 10.666667l-9.386667 9.28a34.88 34.88 0 0 0-6.72 40.533333 130.88 130.88 0 0 0 242.026667-24.106666 28.373333 28.373333 0 0 0-27.2-36.053334z" fill="#1C1C1C" p-id="23785"></path><path d="M633.706667 385.493333a83.52 83.52 0 0 0 167.04 0z" p-id="23786"></path><path d="M661.333333 408.32a19.2 19.2 0 0 0 38.4 0zM248 408.32a19.2 19.2 0 1 0 38.4 0z" fill="#FFFFFF" p-id="23787"></path><path d="M536 603.733333a76.053333 76.053333 0 0 1-18.133333 32 65.173333 65.173333 0 0 1-30.933334 18.453334 53.333333 53.333333 0 0 1-34.346666-2.56A64 64 0 0 1 426.666667 631.68a61.333333 61.333333 0 0 0 27.52 14.4 44.266667 44.266667 0 0 0 28.586666-3.2 49.386667 49.386667 0 0 0 20.693334-18.346667 55.786667 55.786667 0 0 0 8.533333-25.386666 12.16 12.16 0 1 1 24.32 2.133333 16.533333 16.533333 0 0 1 0 2.24z" p-id="23788"></path><path d="M536 599.146667a57.066667 57.066667 0 0 0 8.533333 25.386666A50.026667 50.026667 0 0 0 565.333333 642.88a44.266667 44.266667 0 0 0 28.586667 3.2 61.333333 61.333333 0 0 0 27.52-14.4 64 64 0 0 1-25.706667 20.16 53.333333 53.333333 0 0 1-34.346666 2.56 64 64 0 0 1-30.826667-18.453333 76.16 76.16 0 0 1-18.24-32 12.16 12.16 0 0 1 23.466667-6.72 9.066667 9.066667 0 0 1 0.213333 1.92zM417.92 567.04a288 288 0 0 0-178.133333 14.08 292.8 292.8 0 0 1 180.586666-25.92 6.08 6.08 0 0 1-2.026666 11.946667zM410.88 592.213333a261.44 261.44 0 0 0-99.52 7.146667 277.866667 277.866667 0 0 0-90.986667 44.053333A280 280 0 0 1 309.333333 593.6a272.32 272.32 0 0 1 102.4-13.546667 6.08 6.08 0 0 1 5.653334 6.4 5.973333 5.973333 0 0 1-6.4 5.76zM397.973333 618.666667a189.226667 189.226667 0 0 0-74.666666 17.28A199.573333 199.573333 0 0 0 260.266667 682.666667a205.013333 205.013333 0 0 1 59.733333-51.946667 197.546667 197.546667 0 0 1 76.906667-23.893333 6.08 6.08 0 1 1 1.6 11.84zM632.426667 555.2a292.8 292.8 0 0 1 180.586666 25.92 288 288 0 0 0-178.133333-14.08 6.08 6.08 0 1 1-2.88-11.733333zM640.853333 580.053333a272.32 272.32 0 0 1 102.4 13.546667A280 280 0 0 1 832 643.413333a277.866667 277.866667 0 0 0-90.986667-44.053333 261.44 261.44 0 0 0-99.52-7.146667 6.08 6.08 0 0 1-6.72-5.333333 5.973333 5.973333 0 0 1 5.333334-6.72zM655.573333 606.826667a197.546667 197.546667 0 0 1 76.906667 23.893333A205.013333 205.013333 0 0 1 792.533333 682.666667a199.573333 199.573333 0 0 0-62.826666-46.4 189.226667 189.226667 0 0 0-74.666667-17.28 6.08 6.08 0 1 1 0-12.053334z" p-id="23789"></path><path d="M885.333333 133.12a320 320 0 0 1 20.266667 252.48 587.626667 587.626667 0 0 1 12.906667 123.306667 592.96 592.96 0 0 1-63.146667 267.2A704 704 0 0 1 512 868.906667h-1.173333a690.773333 690.773333 0 0 1-245.333334-45.226667 616.746667 616.746667 0 0 1-96.746666-47.466667 592.213333 592.213333 0 0 1-63.253334-267.306666 587.626667 587.626667 0 0 1 12.906667-123.306667A320.96 320.96 0 0 1 138.666667 133.12a254.72 254.72 0 0 1 151.04 79.573333 695.36 695.36 0 0 1 428.693333-5.333333l15.893333 5.226667A254.613333 254.613333 0 0 1 885.333333 133.12M118.72 93.333333L106.666667 115.733333a357.76 357.76 0 0 0-25.813334 272 631.466667 631.466667 0 0 0 55.253334 404.8l4.693333 9.386667 8.96 5.44a652.586667 652.586667 0 0 0 102.506667 50.24 731.093333 731.093333 0 0 0 258.346666 47.786667H512a741.333333 741.333333 0 0 0 361.386667-97.6l9.706666-5.44 4.906667-9.92a634.56 634.56 0 0 0 55.36-404.693334A357.013333 357.013333 0 0 0 917.333333 115.626667l-12.266666-22.293334-25.066667 3.733334A293.12 293.12 0 0 0 724.373333 170.666667a731.2 731.2 0 0 0-424.746666 0 292.373333 292.373333 0 0 0-155.733334-74.666667l-25.173333-3.733333z" fill="#1C1C1C" p-id="23790"></path></svg>